<svg width="30" height="30" viewBox="0 0 30 30" fill="none" xmlns="http://www.w3.org/2000/svg">
<path d="M3.84549 2C2.82625 2 2 2.82625 2 3.84549V26.1545C2 27.1737 2.82625 28 3.84549 28H26.1545C27.1737 28 28 27.1737 28 26.1545V3.84549C28 2.82626 27.1737 2 26.1545 2H3.84549Z" stroke="#CCCCCC" stroke-width="2.5"/>
<path d="M8.43629 10.5445C9.59772 10.5445 10.5392 9.60181 10.5392 8.43889C10.5392 7.27598 9.59772 6.33325 8.43629 6.33325C7.27486 6.33325 6.33334 7.27598 6.33334 8.43889C6.33334 9.60181 7.27486 10.5445 8.43629 10.5445Z" fill="#C4C4C4"/>
<path d="M12.4652 12.1007H15.9505V13.6993C15.9505 13.6993 16.8962 11.8053 19.4696 11.8053C21.7651 11.8053 23.6667 12.9376 23.6667 16.3889V23.6666H20.0549V17.2707C20.0549 15.2348 18.9694 15.0109 18.1422 15.0109C16.4255 15.0109 16.1316 16.4936 16.1316 17.5363V23.6666H12.4652V12.1007Z" fill="#C4C4C4"/>
<path d="M10.2695 12.1007H6.60309V23.6666H10.2695V17.8836V12.1007Z" fill="#C4C4C4"/>
</svg>
