<svg width="37" height="30" viewBox="0 0 37 30" fill="none" xmlns="http://www.w3.org/2000/svg">
<path d="M34.3203 6.01608L32.8625 6.3694L32.8638 6.37491L34.3203 6.01608ZM31.4117 2.7851L30.9754 4.22025L30.9819 4.2222L31.4117 2.7851ZM34.9999 14.8635L33.4999 14.8567V14.8635H34.9999ZM34.3203 23.6808L35.7781 24.0341L35.7799 24.0266L34.3203 23.6808ZM31.4117 26.9118L31.8326 28.3515L31.8415 28.3489L31.4117 26.9118ZM5.58812 26.8816L6.02027 25.4452L6.01793 25.4445L5.58812 26.8816ZM2.67957 23.6506L1.22079 23.9998L1.22177 24.0039L2.67957 23.6506ZM2.67957 6.01608L1.22175 5.66276L1.21997 5.6703L2.67957 6.01608ZM5.58812 2.7549L5.16724 1.31516C5.16169 1.31678 5.15614 1.31844 5.1506 1.32013L5.58812 2.7549ZM15.75 10.2499L16.545 8.9779C16.0826 8.6889 15.4998 8.67359 15.0229 8.93793C14.5459 9.20227 14.25 9.70461 14.25 10.2499H15.75ZM23.0833 14.8332L23.8783 16.1052C24.3169 15.8311 24.5833 15.3504 24.5833 14.8332C24.5833 14.316 24.3169 13.8353 23.8783 13.5612L23.0833 14.8332ZM15.75 19.4166H14.25C14.25 19.9619 14.5459 20.4642 15.0229 20.7285C15.4998 20.9929 16.0826 20.9776 16.545 20.6886L15.75 19.4166ZM35.7781 5.66276C35.2864 3.63395 33.8223 1.94038 31.8415 1.34799L30.9819 4.2222C31.8282 4.47531 32.5931 5.25782 32.8625 6.3694L35.7781 5.66276ZM34.9999 14.8635C36.4998 14.8704 36.4998 14.8702 36.4998 14.8701C36.4998 14.87 36.4998 14.8699 36.4998 14.8697C36.4999 14.8694 36.4999 14.869 36.4999 14.8686C36.4999 14.8676 36.4999 14.8663 36.4999 14.8646C36.4999 14.8612 36.4999 14.8564 36.4999 14.8502C36.4999 14.8378 36.5 14.8199 36.5 14.7966C36.5 14.75 36.5 14.6822 36.4996 14.5954C36.499 14.4217 36.4972 14.1718 36.4929 13.8635C36.4843 13.2474 36.4653 12.3949 36.4237 11.4496C36.3423 9.60154 36.1699 7.25286 35.7767 5.65725L32.8638 6.37491C33.1775 7.64793 33.3448 9.72297 33.4266 11.5815C33.4665 12.4895 33.4849 13.311 33.4932 13.9056C33.4974 14.2025 33.499 14.4421 33.4997 14.6067C33.5 14.6889 33.5 14.7524 33.5 14.7948C33.5 14.816 33.5 14.8319 33.4999 14.8424C33.4999 14.8476 33.4999 14.8514 33.4999 14.8538C33.4999 14.855 33.4999 14.8558 33.4999 14.8563C33.4999 14.8566 33.4999 14.8567 33.4999 14.8568C33.4999 14.8568 33.4999 14.8568 33.4999 14.8568C33.4999 14.8568 33.4999 14.8567 34.9999 14.8635ZM35.7799 24.0266C36.1558 22.4397 36.3286 20.1065 36.4133 18.2654C36.4566 17.3248 36.4782 16.4769 36.489 15.8643C36.4944 15.5576 36.4971 15.3091 36.4985 15.1366C36.4992 15.0503 36.4995 14.9829 36.4997 14.9367C36.4998 14.9135 36.4998 14.8957 36.4998 14.8834C36.4999 14.8773 36.4999 14.8725 36.4999 14.8692C36.4999 14.8675 36.4999 14.8662 36.4999 14.8653C36.4999 14.8648 36.4999 14.8644 36.4999 14.8641C36.4999 14.864 36.4999 14.8638 36.4999 14.8638C36.4999 14.8636 36.4999 14.8635 34.9999 14.8635C33.4999 14.8635 33.4999 14.8635 33.4999 14.8634C33.4999 14.8634 33.4999 14.8634 33.4999 14.8635C33.4999 14.8635 33.4999 14.8637 33.4999 14.8639C33.4999 14.8644 33.4999 14.8653 33.4999 14.8665C33.4999 14.8689 33.4999 14.8727 33.4998 14.8779C33.4998 14.8883 33.4998 14.9043 33.4997 14.9254C33.4995 14.9677 33.4992 15.031 33.4986 15.1129C33.4973 15.2769 33.4947 15.5155 33.4895 15.8114C33.479 16.4037 33.4582 17.2223 33.4165 18.1275C33.3313 19.9779 33.1643 22.0532 32.8607 23.335L35.7799 24.0266ZM31.8415 28.3489C33.8223 27.7565 35.2864 26.0629 35.7781 24.0341L32.8625 23.3275C32.5931 24.4391 31.8282 25.2216 30.9819 25.4747L31.8415 28.3489ZM18.4999 27.6667C18.4999 29.1667 18.5 29.1667 18.5002 29.1667C18.5003 29.1667 18.5004 29.1667 18.5006 29.1667C18.501 29.1667 18.5015 29.1667 18.5022 29.1667C18.5036 29.1667 18.5057 29.1667 18.5083 29.1667C18.5136 29.1667 18.5213 29.1667 18.5314 29.1666C18.5516 29.1666 18.5814 29.1666 18.6202 29.1665C18.6978 29.1663 18.8113 29.1659 18.9565 29.1652C19.2468 29.1637 19.6637 29.1607 20.1718 29.1548C21.1873 29.1429 22.5701 29.1191 24.0361 29.0715C25.4996 29.024 27.0591 28.9523 28.424 28.8435C29.7438 28.7382 31.0193 28.5893 31.8326 28.3515L30.9909 25.472C30.513 25.6117 29.5289 25.7458 28.1856 25.8529C26.8875 25.9564 25.3805 26.0263 23.9388 26.0731C22.4997 26.1198 21.1387 26.1433 20.1367 26.155C19.636 26.1608 19.2258 26.1638 18.9411 26.1652C18.7988 26.1659 18.688 26.1663 18.6129 26.1665C18.5754 26.1666 18.5469 26.1666 18.5279 26.1666C18.5184 26.1667 18.5112 26.1667 18.5066 26.1667C18.5042 26.1667 18.5025 26.1667 18.5014 26.1667C18.5008 26.1667 18.5004 26.1667 18.5002 26.1667C18.5001 26.1667 18.5 26.1667 18.4999 26.1667C18.4999 26.1667 18.4999 26.1667 18.4999 27.6667ZM5.15597 28.318C5.97906 28.5656 7.26051 28.7208 8.58267 28.8303C9.95006 28.9436 11.5097 29.0182 12.9719 29.0677C14.4368 29.1172 15.8175 29.1419 16.8312 29.1543C17.3383 29.1605 17.7544 29.1636 18.0441 29.1651C18.189 29.1659 18.3024 29.1663 18.3798 29.1665C18.4185 29.1666 18.4483 29.1666 18.4685 29.1666C18.4786 29.1667 18.4863 29.1667 18.4915 29.1667C18.4942 29.1667 18.4962 29.1667 18.4976 29.1667C18.4983 29.1667 18.4988 29.1667 18.4992 29.1667C18.4994 29.1667 18.4996 29.1667 18.4997 29.1667C18.4998 29.1667 18.4999 29.1667 18.4999 27.6667C18.4999 26.1667 18.4999 26.1667 18.4999 26.1667C18.4999 26.1667 18.4998 26.1667 18.4997 26.1667C18.4994 26.1667 18.4991 26.1667 18.4985 26.1667C18.4974 26.1667 18.4957 26.1667 18.4934 26.1667C18.4887 26.1667 18.4816 26.1667 18.4721 26.1666C18.4532 26.1666 18.4248 26.1666 18.3874 26.1665C18.3126 26.1663 18.2021 26.1659 18.0602 26.1652C17.7763 26.1636 17.3672 26.1606 16.8677 26.1545C15.8681 26.1423 14.5102 26.118 13.0733 26.0694C11.6338 26.0207 10.1285 25.9481 8.83033 25.8406C7.48687 25.7293 6.50196 25.5901 6.02027 25.4452L5.15597 28.318ZM1.22177 24.0039C1.71348 26.0327 3.17759 27.7263 5.15832 28.3187L6.01793 25.4445C5.17165 25.1914 4.40677 24.4089 4.13736 23.2973L1.22177 24.0039ZM2 14.8333C0.5 14.8333 0.5 14.8334 0.5 14.8336C0.5 14.8336 0.5 14.8338 0.5 14.8339C0.5 14.8342 0.5 14.8346 0.5 14.8351C0.500001 14.836 0.500002 14.8374 0.500003 14.839C0.500006 14.8424 0.500012 14.8471 0.500023 14.8533C0.500046 14.8656 0.50009 14.8835 0.500176 14.9068C0.50035 14.9532 0.500693 15.0209 0.501374 15.1076C0.502735 15.2809 0.505446 15.5304 0.510849 15.8382C0.521646 16.4532 0.543241 17.3039 0.586526 18.2464C0.671193 20.0898 0.843901 22.4256 1.2208 23.9998L4.13834 23.3013C3.83567 22.0371 3.66859 19.9643 3.58337 18.1087C3.54171 17.2016 3.52083 16.3803 3.51039 15.7855C3.50517 15.4885 3.50257 15.2487 3.50128 15.084C3.50063 15.0017 3.50031 14.9381 3.50016 14.8956C3.50008 14.8743 3.50004 14.8583 3.50002 14.8478C3.50001 14.8426 3.5 14.8388 3.5 14.8363C3.5 14.8351 3.5 14.8343 3.5 14.8338C3.5 14.8335 3.5 14.8333 3.5 14.8333C3.5 14.8332 3.5 14.8333 3.5 14.8332C3.5 14.8333 3.5 14.8333 2 14.8333ZM1.21997 5.6703C0.844047 7.25715 0.671264 9.59041 0.586532 11.4315C0.543246 12.372 0.521649 13.2199 0.510851 13.8326C0.505447 14.1393 0.502735 14.3877 0.501374 14.5603C0.500693 14.6466 0.50035 14.714 0.500176 14.7602C0.50009 14.7833 0.500046 14.8012 0.500023 14.8134C0.500012 14.8196 0.500006 14.8243 0.500003 14.8277C0.500002 14.8293 0.500001 14.8306 0.5 14.8316C0.5 14.8321 0.5 14.8324 0.5 14.8327C0.5 14.8329 0.5 14.833 0.5 14.8331C0.5 14.8332 0.5 14.8333 2 14.8333C3.5 14.8333 3.5 14.8334 3.5 14.8334C3.5 14.8334 3.5 14.8334 3.5 14.8334C3.5 14.8333 3.5 14.8332 3.5 14.8329C3.5 14.8324 3.5 14.8316 3.5 14.8304C3.5 14.828 3.50001 14.8241 3.50002 14.8189C3.50004 14.8085 3.50008 14.7926 3.50016 14.7715C3.50031 14.7291 3.50063 14.6659 3.50128 14.584C3.50257 14.42 3.50517 14.1813 3.51039 13.8855C3.52082 13.2932 3.5417 12.4746 3.58336 11.5694C3.66852 9.719 3.83552 7.64363 4.13917 6.36185L1.21997 5.6703ZM5.1506 1.32013C3.19949 1.9151 1.71246 3.63816 1.22177 5.66276L4.13736 6.3694C4.40779 5.25361 5.20412 4.44019 6.02564 4.18968L5.1506 1.32013ZM18.4999 2C18.4999 0.5 18.4998 0.5 18.4997 0.5C18.4996 0.5 18.4994 0.5 18.4992 0.5C18.4989 0.5 18.4983 0.5 18.4976 0.5C18.4962 0.500001 18.4942 0.500002 18.4916 0.500003C18.4863 0.500006 18.4786 0.500012 18.4685 0.500024C18.4482 0.500048 18.4185 0.500095 18.3797 0.500189C18.3021 0.500376 18.1885 0.50075 18.0434 0.501494C17.753 0.502983 17.3361 0.505957 16.8281 0.511898C15.8126 0.523772 14.4298 0.547534 12.9637 0.595153C11.5003 0.642688 9.94074 0.714398 8.57582 0.823219C7.25604 0.92844 5.98053 1.07741 5.16724 1.31516L6.009 4.19465C6.4869 4.05494 7.47096 3.92082 8.81424 3.81373C10.1124 3.71023 11.6194 3.6404 13.0611 3.59357C14.5002 3.54683 15.8611 3.52341 16.8631 3.51169C17.3638 3.50584 17.7741 3.50291 18.0587 3.50145C18.201 3.50072 18.3119 3.50036 18.3869 3.50018C18.4244 3.50009 18.453 3.50004 18.472 3.50002C18.4815 3.50001 18.4886 3.50001 18.4933 3.5C18.4956 3.5 18.4974 3.5 18.4985 3.5C18.499 3.5 18.4994 3.5 18.4997 3.5C18.4998 3.5 18.4999 3.5 18.4999 3.5C18.4999 3.5 18.4999 3.5 18.4999 2ZM31.8481 1.34996C31.0292 1.10101 29.7484 0.945762 28.4288 0.836343C27.0625 0.723061 25.502 0.648443 24.0381 0.598992C22.5715 0.54945 21.1882 0.52473 20.1725 0.512378C19.6643 0.506198 19.2473 0.503104 18.9568 0.501555C18.8116 0.50078 18.6979 0.500391 18.6203 0.500196C18.5815 0.500099 18.5517 0.50005 18.5315 0.500025C18.5213 0.500013 18.5136 0.500006 18.5083 0.500003C18.5057 0.500002 18.5037 0.500001 18.5023 0.5C18.5016 0.5 18.501 0.5 18.5006 0.5C18.5004 0.5 18.5003 0.5 18.5002 0.5C18.5 0.5 18.4999 0.5 18.4999 2C18.4999 3.5 18.4999 3.5 18.4999 3.5C18.5 3.5 18.5001 3.5 18.5002 3.5C18.5004 3.5 18.5008 3.5 18.5014 3.5C18.5025 3.5 18.5042 3.5 18.5065 3.5C18.5112 3.50001 18.5183 3.50001 18.5278 3.50002C18.5468 3.50005 18.5753 3.50009 18.6128 3.50019C18.6878 3.50038 18.7986 3.50075 18.9408 3.50151C19.2254 3.50303 19.6355 3.50607 20.136 3.51216C21.1377 3.52434 22.4983 3.54869 23.9368 3.59728C25.3781 3.64597 26.8841 3.71856 28.1809 3.82608C29.5243 3.93747 30.5031 4.07664 30.9754 4.22024L31.8481 1.34996ZM14.955 11.5219L22.2883 16.1052L23.8783 13.5612L16.545 8.9779L14.955 11.5219ZM17.25 19.4166V10.2499H14.25V19.4166H17.25ZM22.2883 13.5612L14.955 18.1446L16.545 20.6886L23.8783 16.1052L22.2883 13.5612Z" fill="#CCCCCC"/>
</svg>
