<svg xmlns="http://www.w3.org/2000/svg" viewBox="0 0 318 47.7"><defs><style>.cls-1{fill:#fff;}</style></defs><g id="Layer_2" data-name="Layer 2"><g id="Layer_1-2" data-name="Layer 1"><path class="cls-1" d="M161.87,23.84c-.05,6.7-1.79,12.82-6.49,17.79a19.4,19.4,0,0,1-30.14-2.42c-5.95-8.69-5.87-22.2.18-30.81a19.47,19.47,0,0,1,32.87,1.33A26.88,26.88,0,0,1,161.87,23.84Zm-10.45.69c0-4.64-.8-8-2.4-10.63-1.79-3-4.28-4.84-7.89-4.78a8.31,8.31,0,0,0-7.67,5.09,20.91,20.91,0,0,0,.16,19.34,8.4,8.4,0,0,0,8.07,5c3.68-.09,6.09-2.19,7.73-5.3A18.44,18.44,0,0,0,151.42,24.53Z"/><path class="cls-1" d="M78.81,6l-5,7.19c-3.55-1.36-6.8-2.82-10.19-3.81a11.23,11.23,0,0,0-4.95.14,3.69,3.69,0,0,0-3.11,3.31,3.53,3.53,0,0,0,2.37,4c2.68,1,5.49,1.75,8.22,2.67A66.87,66.87,0,0,1,73,22c4.22,2,6.88,5.16,7.15,10,.3,5.43-1.4,9.92-6.15,12.9-3.5,2.2-7.42,2.77-11.47,2.72-6.94-.09-14.56-3.1-18.81-7.52l5.81-7c2,1.21,3.85,2.48,5.82,3.51a15.82,15.82,0,0,0,10.92,1.62c2.24-.48,3.58-1.77,3.8-3.52.25-2.05-.5-3.46-2.88-4.37-2.86-1.08-5.83-1.83-8.74-2.76-1.76-.56-3.53-1.11-5.23-1.81-4.62-1.89-7.38-5.23-7.72-10.34-.35-5.32,1.44-9.65,6-12.65A18.55,18.55,0,0,1,62.74.08,26.42,26.42,0,0,1,78.81,6Z"/><path class="cls-1" d="M115,9.8H95.47c-.18,2.54-.35,5-.5,7.2,3.3,0,6.48-.33,9.57.07,8.47,1.08,13,6.83,12.56,15.33-.47,8.27-5.46,13.71-13.7,14.92a24.33,24.33,0,0,1-21.11-6.47c2-2.39,4-4.76,6-7.19,1.32.94,2.54,1.9,3.84,2.73a12.65,12.65,0,0,0,9.93,1.89c3.26-.75,5-2.91,5.06-6.11,0-3-1.83-5.25-5-6a15.67,15.67,0,0,0-9.52.83A3,3,0,0,1,90,26.7c-3.72-1.69-5-4.18-4.4-8.4.81-5.7.78-11.52,1.12-17.41H115Z"/><path class="cls-1" d="M42.22,7l-6.4,7.3c-4.29-3.81-9.06-6.24-15-4.82a12.44,12.44,0,0,0-7.19,4.82,16.37,16.37,0,0,0,1,20.21,12.88,12.88,0,0,0,11,4c4.21-.31,7.42-2.64,10.36-5.2l6.34,6.33c-6.83,9.08-23.44,10.85-33.47,3C-1.77,34.38-3,17.79,6.16,7.61,15.9-3.17,34.46-1.56,42.22,7Z"/><path class="cls-1" d="M180.5,35.94c-2.25,3.49-4.35,6.67-6.36,9.9A2.11,2.11,0,0,1,172.05,47c-2.93-.06-5.86,0-9.16,0l12.38-18L163.36,11.53c3.63,0,7,0,10.28.05.41,0,.9.62,1.19,1.06,1.93,2.95,3.81,5.92,5.87,9.14a78,78,0,0,0,4.52-7.07c1.32-2.64,3.12-3.61,6-3.24a52,52,0,0,0,6.52,0c-.4.65-.67,1.12-1,1.57-3.32,4.8-6.62,9.62-10,14.39a1.86,1.86,0,0,0,0,2.55c3.85,5.49,7.61,11,11.65,16.91A48.13,48.13,0,0,0,192,47c-3.3.47-5.35-.66-6.82-3.68A76.24,76.24,0,0,0,180.5,35.94Z"/><path class="cls-1" d="M255.79,19.2c-.53-1.45-1-2.69-1.56-4.31,2.47-.77,4.82-1.84,7.27-2.17a35.83,35.83,0,0,1,9-.13c6.07.73,10.08,4.4,10.45,10.45.47,7.88.11,15.8.11,23.8h-4.66v-4.5l-.66-.44a4.19,4.19,0,0,1-.62,1.21c-4.9,4.84-10.7,5.62-17,3.4A9.82,9.82,0,0,1,251.27,37c0-4.72,2.22-8.1,6.74-9.88,5.27-2.07,10.66-1.64,16.05-.51.67.14,1.34.31,2,.46,1.13-5.63-2.53-9.94-8.73-10.33A21.43,21.43,0,0,0,258,18.32ZM276.24,31c-4.83-1.23-9.64-2.15-14.55-.79-3.45,1-5.24,3.26-5.23,6.43,0,3,2,5.43,5.37,6.37C270.18,45.4,277,39.83,276.24,31Z"/><path class="cls-1" d="M293.29,46.87h-5V13h5v5.6l1.1-1.33A13.62,13.62,0,0,1,309.85,13c5,1.73,8,6.23,8.1,12.32.09,6.82,0,13.65,0,20.47,0,.34,0,.68-.07,1.09H313c0-.61-.08-1.22-.08-1.82,0-5.61,0-11.22,0-16.83a22.13,22.13,0,0,0-.35-4.31c-.95-4.57-4.19-7.1-8.91-7.14a9.77,9.77,0,0,0-10,7.51,16.23,16.23,0,0,0-.39,3.61c0,5.67,0,11.34,0,17Z"/><path class="cls-1" d="M232.75,13h5v7.88c3.21-5.2,7.34-8.63,13.82-8.64v5.4a36,36,0,0,0-4,.7c-5.59,1.59-8.56,5.62-9.32,11.11a96.25,96.25,0,0,0-.41,11.41c0,2,0,3.91,0,6h-5Z"/><path class="cls-1" d="M219.15.85h5V46.8h-5Z"/></g></g></svg>