<svg xmlns="http://www.w3.org/2000/svg" viewBox="0 0 318 92"><defs><style>.cls-1{fill:none;}.cls-2{fill:#fff;}</style></defs><g id="Layer_2" data-name="Layer 2"><g id="Layer_1-2" data-name="Layer 1"><rect class="cls-1" width="318" height="92"/><path class="cls-2" d="M161.87,45.5c-.05,6.7-1.79,12.82-6.49,17.8a19.41,19.41,0,0,1-30.14-2.43c-5.95-8.68-5.87-22.2.18-30.81a19.47,19.47,0,0,1,32.87,1.33A26.91,26.91,0,0,1,161.87,45.5Zm-10.45.69c0-4.64-.8-8-2.4-10.63-1.79-3-4.28-4.84-7.89-4.78a8.32,8.32,0,0,0-7.67,5.09,20.91,20.91,0,0,0,.16,19.34,8.39,8.39,0,0,0,8.07,5c3.68-.09,6.09-2.19,7.73-5.3A18.41,18.41,0,0,0,151.42,46.19Z"/><path class="cls-2" d="M78.81,27.65l-5,7.2C70.3,33.48,67.05,32,63.66,31a11.09,11.09,0,0,0-4.95.15,3.67,3.67,0,0,0-3.11,3.3,3.53,3.53,0,0,0,2.37,4c2.68,1,5.49,1.76,8.22,2.68A64.52,64.52,0,0,1,73,43.66c4.22,2,6.88,5.16,7.15,10,.3,5.42-1.4,9.91-6.15,12.9-3.5,2.2-7.42,2.76-11.47,2.71C55.6,69.2,48,66.19,43.73,61.78l5.81-7c2,1.22,3.85,2.49,5.82,3.51a15.82,15.82,0,0,0,10.92,1.62c2.24-.48,3.58-1.77,3.8-3.52.25-2-.5-3.46-2.88-4.36-2.86-1.08-5.83-1.83-8.74-2.77-1.76-.56-3.53-1.11-5.23-1.81-4.62-1.89-7.38-5.23-7.72-10.34-.35-5.31,1.44-9.65,6-12.65a18.55,18.55,0,0,1,11.26-2.73A26.48,26.48,0,0,1,78.81,27.65Z"/><path class="cls-2" d="M115,31.46H95.47c-.18,2.54-.35,5-.5,7.21,3.3,0,6.48-.33,9.57.06,8.47,1.08,13,6.83,12.56,15.33-.47,8.27-5.46,13.72-13.7,14.92a24.32,24.32,0,0,1-21.11-6.46c2-2.4,4-4.76,6-7.2,1.32.94,2.54,1.9,3.84,2.73a12.65,12.65,0,0,0,9.93,1.89c3.26-.74,5-2.91,5.06-6.11a6,6,0,0,0-5-6,15.52,15.52,0,0,0-9.52.83A3,3,0,0,1,90,48.36c-3.72-1.68-5-4.18-4.4-8.4.81-5.7.78-11.52,1.12-17.41H115Z"/><path class="cls-2" d="M42.22,28.68,35.82,36c-4.29-3.81-9.06-6.24-15-4.82A12.41,12.41,0,0,0,13.65,36c-4.37,5.84-4,14.88,1,20.2a12.85,12.85,0,0,0,11,4C29.83,59.9,33,57.58,36,55l6.34,6.32c-6.83,9.09-23.44,10.85-33.47,3C-1.77,56-3,39.45,6.16,29.27,15.9,18.5,34.46,20.1,42.22,28.68Z"/><path class="cls-2" d="M180.5,57.61c-2.25,3.48-4.35,6.66-6.36,9.9a2.11,2.11,0,0,1-2.09,1.11c-2.93-.05-5.86,0-9.16,0l12.38-18c-3.91-5.73-7.82-11.43-11.91-17.43,3.63,0,7,0,10.28.05.41,0,.9.62,1.19,1.06,1.93,3,3.81,5.93,5.87,9.14a77.9,77.9,0,0,0,4.52-7.06c1.32-2.64,3.12-3.62,6-3.24a54,54,0,0,0,6.52,0c-.4.64-.67,1.12-1,1.56-3.32,4.81-6.62,9.63-10,14.39a1.87,1.87,0,0,0,0,2.56c3.85,5.48,7.61,11,11.65,16.9a46.41,46.41,0,0,0-6.39.06c-3.3.46-5.35-.67-6.82-3.69A74.93,74.93,0,0,0,180.5,57.61Z"/><path class="cls-2" d="M255.79,40.86c-.53-1.44-1-2.69-1.56-4.31,2.47-.77,4.82-1.84,7.27-2.17a36.3,36.3,0,0,1,9-.12c6.07.72,10.08,4.39,10.45,10.44.47,7.88.11,15.81.11,23.81h-4.66V64l-.66-.44a4.19,4.19,0,0,1-.62,1.21c-4.9,4.84-10.7,5.62-17,3.4a9.81,9.81,0,0,1-6.84-9.47A9.82,9.82,0,0,1,258,48.81c5.27-2.06,10.66-1.64,16.05-.51.67.14,1.34.31,2,.46,1.13-5.62-2.53-9.94-8.73-10.33A21.43,21.43,0,0,0,258,40C257.33,40.26,256.64,40.53,255.79,40.86Zm20.45,11.81c-4.83-1.23-9.64-2.15-14.55-.79-3.45,1-5.24,3.26-5.23,6.43,0,3,2,5.43,5.37,6.38C270.18,67.07,277,61.5,276.24,52.67Z"/><path class="cls-2" d="M293.29,68.53h-5V34.66h5v5.6c.56-.66.83-1,1.1-1.33a13.62,13.62,0,0,1,15.47-4.3c5,1.73,8,6.22,8.1,12.31.09,6.83,0,13.65,0,20.48,0,.33,0,.67-.07,1.09H313c0-.62-.08-1.22-.08-1.83,0-5.61,0-11.22,0-16.83a22.13,22.13,0,0,0-.35-4.31c-.95-4.57-4.19-7.1-8.91-7.13a9.75,9.75,0,0,0-10,7.51,16.14,16.14,0,0,0-.39,3.6c0,5.67,0,11.34,0,17Z"/><path class="cls-2" d="M232.75,34.63h5v7.88c3.21-5.2,7.34-8.63,13.82-8.64v5.4a38.47,38.47,0,0,0-4,.7c-5.59,1.59-8.56,5.62-9.32,11.11a96.25,96.25,0,0,0-.41,11.41c0,2,0,3.91,0,6h-5Z"/><path class="cls-2" d="M219.15,22.51h5V68.46h-5Z"/></g></g></svg>