<svg width="78" height="78" viewBox="0 0 78 78" fill="none" xmlns="http://www.w3.org/2000/svg">
<path d="M10 38.32C10 24.9698 10 18.2947 14.1474 14.1474C18.2947 10 24.9698 10 38.32 10H40.68C54.0302 10 60.7053 10 64.8526 14.1474C69 18.2947 69 24.9698 69 38.32V40.68C69 54.0302 69 60.7053 64.8526 64.8526C60.7053 69 54.0302 69 40.68 69H38.32C24.9698 69 18.2947 69 14.1474 64.8526C10 60.7053 10 54.0302 10 40.68V38.32Z" fill="#00C2FF"/>
<path fill-rule="evenodd" clip-rule="evenodd" d="M5.48296 5.48296C0 10.9659 0 19.7906 0 37.44V40.56C0 58.2094 0 67.0341 5.48296 72.517C10.9659 78 19.7906 78 37.44 78H40.56C58.2094 78 67.0341 78 72.517 72.517C78 67.0341 78 58.2094 78 40.56V37.44C78 19.7906 78 10.9659 72.517 5.48296C67.0341 0 58.2094 0 40.56 0H37.44C19.7906 0 10.9659 0 5.48296 5.48296ZM32.3418 18.3551C27.6815 18.2176 23.0016 18.2176 18.3413 18.3551C18.2278 19.7007 18.2474 21.0463 18.2671 22.3992C18.2747 22.9211 18.2823 23.4441 18.2823 23.9686C18.2725 29.6312 18.2725 35.2889 18.2725 40.9467C18.2725 46.6044 18.2725 52.2621 18.2627 57.9248C18.2823 58.5134 18.3216 59.0822 18.3609 59.6512L18.361 59.6522C23.0213 59.7895 27.6815 59.7699 32.3418 59.6522C32.4668 56.5136 32.4428 53.375 32.419 50.2393C32.3977 47.4528 32.3765 44.6687 32.4598 41.8889C34.8785 41.771 37.3168 41.771 39.755 41.8889C39.8828 45.0889 39.8606 48.2947 39.8384 51.5C39.8197 54.2124 39.8009 56.9245 39.873 59.6324C41.1814 59.7676 42.4899 59.7534 43.7983 59.7393C44.2006 59.735 44.6029 59.7306 45.0052 59.7306C46.9204 59.7075 48.8387 59.7177 50.7588 59.7279C53.7277 59.7436 56.701 59.7594 59.6743 59.6522C59.7726 53.0178 59.7726 46.4033 59.6743 39.7886C57.8501 39.7042 56.0305 39.7185 54.211 39.7328C52.2255 39.7484 50.2403 39.764 48.2496 39.6513C48.1514 37.7473 48.112 35.8435 48.289 33.9592C49.4312 33.8978 50.5733 33.9187 51.7155 33.9396C53.1296 33.9655 54.5437 33.9913 55.9578 33.8611C56.0654 32.5587 56.0534 31.2562 56.0413 29.9538C56.0357 29.3523 56.0302 28.7508 56.0364 28.1494C56.0139 26.8959 56.0287 25.6424 56.0435 24.39C56.0675 22.3674 56.0914 20.3477 55.9578 18.3354C50.7862 18.2373 45.6148 18.2176 40.4432 18.3551C40.3183 19.7058 40.3422 21.0621 40.3661 22.4181C40.3873 23.6235 40.4085 24.8287 40.3252 26.0296C37.7099 26.2258 35.075 26.2062 32.4598 26.0492C32.375 24.8167 32.394 23.5842 32.4131 22.3539C32.4338 21.0175 32.4544 19.6836 32.3418 18.3551Z" fill="white"/>
</svg>
