<svg xmlns="http://www.w3.org/2000/svg" viewBox="0 0 76.01 76.1"><defs><style>.cls-1{fill:none;stroke:#a51c30;stroke-linecap:round;stroke-linejoin:round;stroke-width:4.22px;}</style></defs><g id="Layer_2" data-name="Layer 2"><g id="Layer_1-2" data-name="Layer 1"><path class="cls-1" d="M2.12,41.5S1.45,24.8,13.46,13c2.34-2.3,11.34-11,25.23-10.93,1,0,14.29.24,23.91,9.85a41.13,41.13,0,0,1,7,9.84,45.92,45.92,0,0,1,4.22,11.26c.08,1.36.07,20.83,0,30.94A10.23,10.23,0,0,1,71,71a10.42,10.42,0,0,1-5.63,2.82c-1.76.33-30.94,0-30.94,0a5.14,5.14,0,0,1-4.22-4.22A5.21,5.21,0,0,1,34.47,64q2.94-.11,6.08-.12c2.26,0,4.46,0,6.58.12a5.15,5.15,0,0,1,4.22,4.22,5.21,5.21,0,0,1-4.22,5.63"/><path class="cls-1" d="M49.94,54.15V31.65a11,11,0,0,1,11.25,0,10.4,10.4,0,0,1,4.22,5.63v9.84a9.88,9.88,0,0,1-2.81,5.63C59.56,55.67,54.54,56.24,49.94,54.15Z"/><path class="cls-1" d="M27.44,54.15V31.65a11,11,0,0,0-11.26,0A10.51,10.51,0,0,0,12,37.28v9.84a10,10,0,0,0,2.82,5.63C17.82,55.67,22.84,56.24,27.44,54.15Z"/></g></g></svg>