<svg id="svg" version="1.1" xmlns="http://www.w3.org/2000/svg" xmlns:xlink="http://www.w3.org/1999/xlink" width="400" height="400" viewBox="0, 0, 400,400"><g id="svgg"><path id="path0" d="M197.828 75.264 C 197.812 75.276,196.733 75.337,195.430 75.401 C 194.126 75.466,192.755 75.553,192.383 75.597 C 191.166 75.738,187.653 76.189,187.220 76.260 C 185.968 76.464,185.493 76.550,184.257 76.794 C 183.033 77.037,180.175 77.737,177.486 78.454 C 175.427 79.003,171.166 80.524,170.083 81.097 C 169.921 81.183,169.712 81.253,169.618 81.253 C 169.268 81.253,163.060 84.249,161.574 85.135 C 161.109 85.412,160.554 85.718,160.341 85.814 C 159.725 86.092,156.333 88.242,156.270 88.394 C 156.239 88.470,156.112 88.532,155.988 88.532 C 155.864 88.532,155.737 88.589,155.706 88.658 C 155.675 88.728,155.311 89.006,154.897 89.275 C 154.483 89.545,154.064 89.829,153.966 89.906 C 153.868 89.983,153.026 90.612,152.095 91.303 C 147.050 95.050,141.827 100.155,137.669 105.401 C 136.006 107.500,134.236 109.974,134.236 110.201 C 134.236 110.293,134.160 110.368,134.067 110.368 C 133.974 110.368,133.898 110.482,133.898 110.622 C 133.898 110.762,133.821 110.876,133.728 110.876 C 133.635 110.876,133.559 110.990,133.559 111.130 C 133.559 111.270,133.495 111.384,133.417 111.384 C 133.339 111.384,133.188 111.555,133.082 111.765 C 132.976 111.974,132.698 112.450,132.464 112.823 C 132.229 113.195,131.988 113.614,131.926 113.754 C 131.865 113.893,131.718 114.122,131.600 114.262 C 131.216 114.717,128.245 120.460,127.431 122.321 C 127.273 122.683,126.979 123.356,126.778 123.816 C 125.295 127.203,123.085 134.004,122.649 136.521 C 122.601 136.801,122.489 137.278,122.400 137.582 C 122.312 137.887,122.241 138.153,122.244 138.175 C 122.248 138.210,122.108 139.007,121.940 139.907 C 121.905 140.093,121.798 140.741,121.702 141.346 C 121.605 141.951,121.493 142.636,121.452 142.869 C 121.411 143.102,121.330 143.711,121.271 144.223 C 121.211 144.736,121.139 145.284,121.109 145.441 C 121.080 145.599,121.003 146.399,120.940 147.219 C 120.876 148.039,120.796 148.900,120.762 149.132 C 120.682 149.684,120.682 159.753,120.762 160.305 C 120.796 160.537,120.876 161.399,120.940 162.218 C 121.003 163.038,121.080 163.838,121.109 163.996 C 121.139 164.154,121.211 164.702,121.271 165.214 C 121.330 165.726,121.411 166.335,121.452 166.568 C 121.493 166.801,121.605 167.486,121.702 168.091 C 121.876 169.173,121.958 169.622,122.135 170.461 C 122.184 170.694,122.268 171.151,122.322 171.477 C 122.376 171.803,122.452 172.121,122.490 172.183 C 122.528 172.246,122.636 172.703,122.728 173.199 C 122.820 173.695,123.016 174.520,123.164 175.032 C 123.311 175.544,123.585 176.496,123.773 177.148 C 124.355 179.172,125.511 182.569,125.774 183.028 C 125.866 183.189,125.942 183.400,125.942 183.495 C 125.942 183.590,126.085 183.991,126.260 184.386 C 126.435 184.781,126.735 185.485,126.928 185.950 C 127.480 187.286,127.649 187.646,128.860 190.085 C 129.487 191.349,130.223 192.763,130.494 193.229 C 130.766 193.694,131.152 194.395,131.354 194.787 C 131.681 195.422,134.825 200.289,135.245 200.808 C 135.337 200.922,135.978 201.777,136.670 202.708 C 137.362 203.639,138.145 204.645,138.410 204.944 C 138.675 205.243,139.158 205.809,139.484 206.203 C 142.325 209.639,149.185 216.238,150.970 217.255 C 151.123 217.342,151.362 217.527,151.502 217.666 C 152.065 218.226,157.589 222.091,157.828 222.091 C 157.868 222.091,158.308 222.367,158.807 222.705 C 159.305 223.043,159.941 223.430,160.220 223.565 C 160.499 223.700,161.185 224.071,161.744 224.390 C 162.884 225.042,165.896 226.554,167.169 227.115 C 167.630 227.318,168.526 227.718,169.161 228.004 C 172.330 229.429,179.385 231.678,182.686 232.313 C 182.899 232.354,183.415 232.466,183.834 232.562 C 184.253 232.658,185.091 232.816,185.696 232.914 C 186.301 233.012,186.949 233.122,187.135 233.158 C 187.321 233.195,187.854 233.276,188.320 233.338 C 188.785 233.400,189.414 233.484,189.716 233.526 C 191.017 233.704,191.443 233.750,192.806 233.857 C 193.597 233.919,194.511 233.996,194.837 234.028 C 195.613 234.103,204.565 234.102,205.332 234.027 C 205.658 233.995,206.503 233.922,207.210 233.865 C 207.916 233.809,208.792 233.727,209.156 233.684 C 210.528 233.521,211.355 233.414,211.765 233.347 C 211.997 233.309,212.683 233.198,213.288 233.101 C 215.056 232.817,215.911 232.657,216.504 232.497 C 216.551 232.485,216.894 232.416,217.266 232.344 C 218.217 232.160,220.569 231.586,221.075 231.414 C 221.308 231.335,221.841 231.176,222.260 231.061 C 223.656 230.677,226.727 229.665,228.253 229.086 C 230.122 228.377,230.945 228.027,233.094 227.027 C 233.699 226.745,234.613 226.322,235.125 226.085 C 235.637 225.849,236.703 225.301,237.495 224.866 C 238.286 224.432,239.162 223.959,239.441 223.816 C 240.072 223.492,242.965 221.725,243.081 221.594 C 243.127 221.541,243.374 221.390,243.628 221.259 C 243.883 221.128,244.241 220.881,244.425 220.709 C 244.609 220.538,244.804 220.398,244.858 220.398 C 244.913 220.398,245.049 220.320,245.162 220.225 C 245.274 220.129,245.984 219.615,246.738 219.082 C 247.493 218.549,248.369 217.905,248.685 217.652 C 249.001 217.399,249.755 216.795,250.360 216.310 C 250.965 215.825,251.689 215.222,251.968 214.969 C 255.321 211.941,256.668 210.646,258.083 209.091 C 260.249 206.711,261.580 205.183,261.763 204.868 C 261.843 204.730,262.033 204.479,262.186 204.310 C 262.671 203.771,263.362 202.870,264.710 201.016 C 264.777 200.922,265.042 200.566,265.298 200.223 C 265.554 199.880,265.764 199.518,265.764 199.419 C 265.764 199.320,265.840 199.238,265.933 199.238 C 266.026 199.238,266.102 199.124,266.102 198.984 C 266.102 198.845,266.179 198.730,266.272 198.730 C 266.365 198.730,266.441 198.616,266.441 198.477 C 266.441 198.337,266.517 198.223,266.610 198.223 C 266.703 198.223,266.780 198.141,266.780 198.042 C 266.780 197.943,266.970 197.612,267.203 197.307 C 267.435 197.001,267.626 196.697,267.626 196.630 C 267.626 196.562,267.811 196.264,268.037 195.968 C 268.264 195.671,268.534 195.238,268.639 195.006 C 268.743 194.773,269.011 194.278,269.234 193.906 C 269.951 192.709,272.538 187.520,273.159 186.035 C 273.489 185.243,273.870 184.346,274.004 184.041 C 274.138 183.735,274.387 183.088,274.556 182.602 C 274.725 182.116,275.066 181.147,275.313 180.449 C 275.560 179.750,275.992 178.379,276.273 177.402 C 276.554 176.424,276.894 175.243,277.029 174.778 C 277.164 174.312,277.341 173.589,277.423 173.170 C 277.505 172.751,277.730 171.646,277.923 170.715 C 278.117 169.784,278.313 168.794,278.360 168.515 C 278.539 167.440,278.613 166.965,278.713 166.229 C 278.771 165.810,278.846 165.277,278.880 165.044 C 279.601 160.158,279.692 150.049,279.052 145.747 C 279.018 145.514,278.942 144.905,278.884 144.393 C 278.826 143.881,278.750 143.347,278.715 143.208 C 278.680 143.068,278.608 142.611,278.555 142.192 C 278.502 141.773,278.428 141.278,278.391 141.092 C 278.353 140.906,278.164 139.953,277.970 138.976 C 277.369 135.950,277.162 135.071,276.510 132.800 C 275.611 129.665,274.438 126.292,273.875 125.224 C 273.790 125.063,273.720 124.855,273.720 124.764 C 273.720 124.405,271.400 119.484,270.085 117.055 C 269.733 116.403,269.326 115.641,269.183 115.362 C 268.708 114.439,267.057 111.808,266.917 111.751 C 266.841 111.720,266.780 111.619,266.780 111.527 C 266.780 111.375,265.830 109.889,265.606 109.691 C 265.553 109.645,265.153 109.073,264.716 108.421 C 261.921 104.251,254.251 95.961,251.226 93.842 C 251.022 93.698,250.648 93.388,250.395 93.152 C 249.657 92.462,245.506 89.378,245.315 89.378 C 245.219 89.378,245.115 89.315,245.084 89.239 C 245.008 89.054,242.973 87.685,242.772 87.685 C 242.685 87.685,242.525 87.578,242.417 87.447 C 242.308 87.316,241.975 87.084,241.677 86.931 C 241.378 86.779,240.906 86.505,240.626 86.323 C 240.347 86.141,239.890 85.872,239.611 85.725 C 239.331 85.578,238.570 85.157,237.918 84.789 C 235.838 83.614,231.983 81.798,229.708 80.922 C 228.917 80.618,228.041 80.270,227.761 80.150 C 226.207 79.482,219.489 77.500,217.520 77.130 C 217.287 77.086,216.754 76.971,216.335 76.875 C 215.916 76.779,215.078 76.621,214.473 76.523 C 213.868 76.426,213.213 76.314,213.018 76.275 C 212.822 76.236,212.258 76.152,211.765 76.090 C 211.271 76.027,210.730 75.949,210.563 75.917 C 210.397 75.885,209.742 75.806,209.108 75.742 C 208.474 75.678,207.766 75.601,207.533 75.572 C 206.381 75.425,197.970 75.159,197.828 75.264 M231.570 179.178 L 200.085 210.664 168.557 179.178 L 137.029 147.693 154.507 130.259 L 171.985 112.824 185.993 126.831 L 200.001 140.838 214.050 126.788 L 228.099 112.738 245.577 130.216 L 263.056 147.693 231.570 179.178 M161.362 137.157 L 150.825 147.695 161.348 158.330 L 171.871 168.966 182.508 158.330 L 193.144 147.695 182.607 137.157 C 176.812 131.361,172.032 126.619,171.985 126.619 C 171.938 126.619,167.157 131.361,161.362 137.157 M217.477 137.072 C 211.729 142.821,207.025 147.602,207.025 147.695 C 207.025 147.788,211.767 152.606,217.563 158.401 L 228.101 168.938 238.722 158.315 L 249.344 147.693 238.806 137.156 C 233.010 131.360,228.192 126.619,228.099 126.619 C 228.006 126.619,223.226 131.323,217.477 137.072 M189.335 165.214 L 178.841 175.709 189.463 186.331 L 200.084 196.952 210.580 186.458 C 216.352 180.686,221.075 175.887,221.075 175.793 C 221.075 175.572,200.221 154.719,199.999 154.719 C 199.906 154.719,195.107 159.441,189.335 165.214 M146.085 248.758 C 145.480 249.072,143.043 250.274,140.669 251.431 C 138.295 252.587,134.486 254.452,132.205 255.575 C 129.924 256.699,126.704 258.265,125.049 259.056 L 122.041 260.495 122.087 263.933 L 122.133 267.372 139.992 267.457 L 157.850 267.541 158.647 267.934 C 162.126 269.647,162.114 274.379,158.625 276.238 L 157.645 276.761 139.997 276.765 C 130.291 276.768,122.282 276.812,122.199 276.863 C 122.116 276.914,122.048 278.418,122.048 280.205 L 122.048 283.453 139.780 283.419 C 159.731 283.381,159.415 283.393,160.931 282.602 C 161.192 282.466,161.466 282.355,161.540 282.354 C 161.775 282.352,163.585 281.141,164.096 280.644 L 164.586 280.167 165.336 280.827 C 166.123 281.520,168.831 282.934,169.700 283.105 C 169.979 283.160,170.398 283.245,170.631 283.293 C 170.863 283.341,171.777 283.381,172.662 283.381 C 173.546 283.381,174.460 283.341,174.693 283.293 C 174.926 283.245,175.345 283.159,175.624 283.104 C 177.559 282.718,181.299 280.048,182.158 278.439 C 182.289 278.196,182.558 277.700,182.756 277.339 C 183.111 276.695,183.537 275.555,183.775 274.617 C 183.842 274.356,183.924 271.134,183.959 267.457 L 184.023 260.770 180.712 260.819 L 177.402 260.869 177.402 266.648 C 177.402 273.451,177.340 273.844,176.074 275.190 C 172.998 278.457,168.076 276.296,167.906 271.603 C 167.801 268.728,166.699 266.200,164.697 264.240 C 163.316 262.890,162.923 262.548,162.751 262.548 C 162.692 262.548,162.454 262.398,162.222 262.216 C 161.697 261.803,160.168 261.223,159.041 261.009 C 158.552 260.916,153.630 260.849,147.487 260.853 L 136.785 260.859 139.954 259.257 C 141.697 258.376,144.700 256.891,146.627 255.957 L 150.131 254.258 149.567 253.028 C 148.322 250.313,147.290 248.160,147.239 248.173 C 147.210 248.181,146.691 248.444,146.085 248.758 M254.977 261.193 C 255.054 276.203,255.004 275.804,257.215 278.910 C 259.506 282.127,264.427 284.090,268.218 283.298 C 272.373 282.431,274.941 280.459,276.681 276.803 C 277.566 274.942,277.625 274.340,277.666 266.695 L 277.698 260.770 274.355 260.770 L 271.011 260.770 270.998 266.780 C 270.984 273.462,271.008 273.101,270.512 274.126 C 268.782 277.699,264.008 277.613,262.068 273.974 L 261.617 273.127 261.617 260.686 L 261.617 248.244 258.263 248.244 L 254.910 248.244 254.977 261.193 M191.158 267.372 C 191.224 273.787,191.257 274.330,191.649 275.582 C 192.830 279.348,196.910 282.959,200.296 283.235 C 200.552 283.256,200.762 283.314,200.762 283.363 C 200.762 283.487,209.746 283.417,210.985 283.284 C 213.109 283.056,216.052 281.508,217.514 279.851 C 219.968 277.068,220.543 275.247,220.558 270.207 L 220.567 267.457 229.877 267.457 L 239.187 267.457 239.187 264.156 L 239.187 260.855 226.576 260.855 L 213.965 260.855 213.945 266.483 C 213.934 269.579,213.937 272.178,213.952 272.258 C 213.967 272.339,213.890 272.682,213.783 273.020 C 212.740 276.294,211.899 276.682,205.840 276.682 C 200.105 276.682,199.430 276.434,198.237 273.890 L 197.799 272.958 197.799 266.864 L 197.799 260.770 194.444 260.770 L 191.089 260.770 191.158 267.372 M247.186 260.816 L 243.927 260.862 243.906 266.699 C 243.894 269.909,243.874 272.592,243.860 272.662 C 243.640 273.767,243.275 274.500,242.593 275.208 C 241.149 276.708,241.332 276.675,234.152 276.732 L 227.846 276.782 227.846 280.118 L 227.846 283.453 233.898 283.422 C 241.758 283.380,241.931 283.360,244.350 282.190 C 247.162 280.830,249.659 277.695,250.288 274.736 C 250.418 274.120,250.589 263.571,250.497 261.786 L 250.444 260.770 247.186 260.816 M165.975 288.617 L 164.118 290.480 168.346 294.711 L 172.575 298.942 176.850 294.669 L 181.126 290.396 179.264 288.534 L 177.403 286.673 175.032 289.039 L 172.662 291.405 170.332 289.079 C 169.051 287.801,167.964 286.754,167.917 286.754 C 167.870 286.754,166.996 287.592,165.975 288.617 M259.754 288.617 L 257.896 290.481 262.127 294.712 L 266.358 298.943 270.588 294.710 L 274.818 290.478 272.955 288.615 L 271.093 286.753 268.727 289.123 L 266.361 291.494 263.986 289.124 L 261.612 286.753 259.754 288.617 M122.048 313.627 L 122.048 324.333 124.080 324.333 L 126.111 324.333 126.111 315.616 L 126.111 306.898 129.623 306.899 C 133.470 306.900,134.131 307.006,134.992 307.762 C 135.607 308.302,136.141 309.472,136.025 310.030 C 135.986 310.216,135.949 310.496,135.942 310.651 C 135.882 311.967,134.255 312.645,131.147 312.650 L 128.650 312.653 128.650 314.701 L 128.650 316.748 131.824 316.671 C 135.784 316.575,136.816 316.227,138.413 314.452 C 140.227 312.436,140.683 308.407,139.310 306.524 C 139.126 306.272,138.976 305.997,138.976 305.914 C 138.976 305.612,137.135 304.031,136.247 303.569 L 135.336 303.097 128.692 303.008 L 122.048 302.920 122.048 313.627 M144.769 305.290 L 144.816 307.321 148.760 307.367 C 153.716 307.424,154.719 307.914,154.719 310.281 L 154.719 310.968 150.429 310.955 C 146.604 310.943,146.048 310.976,145.292 311.263 C 139.581 313.433,139.303 321.529,144.851 324.128 L 145.832 324.587 152.314 324.640 L 158.796 324.692 158.746 316.430 L 158.697 308.168 158.199 307.152 C 157.563 305.855,156.268 304.560,154.972 303.925 L 153.957 303.428 149.339 303.343 L 144.721 303.259 144.769 305.290 M167.753 303.360 C 165.544 303.599,163.483 305.096,162.463 307.201 L 161.913 308.337 161.863 316.504 L 161.814 324.672 163.852 324.672 L 165.891 324.672 165.891 317.193 C 165.891 306.901,165.584 307.406,171.830 307.406 L 175.624 307.406 175.624 305.332 L 175.624 303.259 172.154 303.259 C 170.245 303.259,168.265 303.304,167.753 303.360 M182.047 303.363 C 177.324 303.940,175.392 310.203,178.947 313.415 C 180.365 314.696,181.070 314.882,184.435 314.862 C 188.417 314.839,189.371 315.124,190.101 316.554 C 190.707 317.742,190.453 318.878,189.347 319.932 L 188.725 320.525 183.867 320.574 L 179.010 320.623 179.062 322.656 L 179.115 324.690 184.310 324.639 L 189.505 324.587 190.632 324.022 C 195.789 321.433,195.823 314.060,190.690 311.543 C 189.686 311.051,189.632 311.044,186.119 310.961 C 183.026 310.887,182.496 310.834,182.035 310.556 C 181.336 310.132,181.053 309.261,181.370 308.503 C 181.817 307.433,181.946 307.406,186.496 307.406 L 190.605 307.406 190.605 305.332 L 190.605 303.259 186.754 303.259 C 184.636 303.259,182.518 303.306,182.047 303.363 M202.962 313.965 L 202.962 324.672 204.994 324.672 L 207.025 324.672 207.025 316.028 L 207.025 307.384 211.164 307.437 L 215.304 307.490 215.972 308.143 C 217.267 309.408,217.264 310.992,215.965 312.261 L 215.304 312.907 212.434 312.964 L 209.564 313.020 209.564 315.053 L 209.564 317.086 212.823 317.024 C 216.703 316.951,217.356 316.737,219.143 314.950 C 222.344 311.749,221.387 305.944,217.351 304.075 C 215.700 303.311,215.958 303.334,208.760 303.292 L 202.962 303.259 202.962 313.965 M225.476 305.332 L 225.476 307.406 229.397 307.406 C 234.388 307.406,235.463 307.926,235.463 310.341 L 235.463 310.968 231.179 310.955 C 227.256 310.943,226.816 310.971,225.967 311.288 C 220.337 313.395,219.994 321.285,225.414 324.004 L 226.576 324.587 233.058 324.637 L 239.540 324.687 239.491 316.512 L 239.441 308.337 238.876 307.168 C 238.196 305.764,237.088 304.634,235.707 303.936 L 234.702 303.428 230.089 303.343 L 225.476 303.259 225.476 305.332 M249.530 303.378 C 247.790 303.570,246.069 304.623,244.831 306.254 C 244.639 306.507,244.092 307.674,243.863 308.320 C 243.728 308.702,243.714 318.771,243.848 319.509 C 244.173 321.300,245.685 323.082,247.736 324.089 L 248.752 324.587 253.110 324.640 L 257.469 324.693 257.469 322.651 L 257.469 320.609 253.855 320.609 C 247.775 320.609,247.596 320.408,247.684 313.669 C 247.742 309.208,247.830 308.819,248.973 307.946 L 249.571 307.490 253.520 307.439 L 257.469 307.388 257.469 305.324 L 257.469 303.259 254.041 303.259 C 252.156 303.259,250.126 303.312,249.530 303.378 M260.471 307.152 C 260.492 309.293,260.511 314.111,260.513 317.859 L 260.516 324.672 262.460 324.672 L 264.404 324.672 264.449 319.805 L 264.494 314.939 267.880 314.939 C 271.694 314.939,272.149 315.048,273.010 316.176 L 273.466 316.773 273.517 320.723 L 273.568 324.672 275.601 324.672 L 277.634 324.672 277.581 320.229 L 277.529 315.785 277.038 314.786 C 275.842 312.347,273.575 310.921,270.927 310.943 L 269.573 310.954 272.450 309.461 C 274.033 308.640,275.804 307.755,276.386 307.495 C 277.659 306.925,277.656 306.975,276.592 304.856 L 275.741 303.159 273.926 304.094 C 272.534 304.811,265.294 308.385,264.529 308.732 C 264.454 308.766,264.416 307.548,264.444 306.026 L 264.494 303.259 262.463 303.259 L 260.432 303.259 260.471 307.152 M154.719 317.732 L 154.719 320.609 150.899 320.609 C 146.765 320.609,146.728 320.602,145.711 319.630 C 144.210 318.196,144.982 315.655,147.101 315.053 C 147.427 314.960,149.274 314.878,151.206 314.869 L 154.719 314.854 154.719 317.732 M235.463 317.732 L 235.463 320.609 231.646 320.609 C 227.425 320.609,227.286 320.581,226.356 319.521 C 225.375 318.404,225.425 316.937,226.479 315.882 C 227.369 314.993,227.917 314.892,231.951 314.871 L 235.463 314.854 235.463 317.732 " stroke="none" fill="#24ace4" fill-rule="evenodd"></path><path id="path1" d="M199.027 75.284 C 199.609 75.317,200.561 75.317,201.143 75.284 C 201.725 75.251,201.248 75.224,200.085 75.224 C 198.921 75.224,198.445 75.251,199.027 75.284 M120.579 153.026 C 120.579 153.631,120.610 153.879,120.647 153.576 C 120.685 153.273,120.685 152.778,120.647 152.476 C 120.610 152.173,120.579 152.421,120.579 153.026 M120.579 156.411 C 120.579 157.017,120.610 157.264,120.647 156.961 C 120.685 156.659,120.685 156.164,120.647 155.861 C 120.610 155.559,120.579 155.806,120.579 156.411 M199.196 234.234 C 199.685 234.268,200.485 234.268,200.973 234.234 C 201.462 234.200,201.062 234.172,200.085 234.172 C 199.107 234.172,198.707 234.200,199.196 234.234 M258.272 248.284 L 261.530 248.336 261.575 260.393 L 261.620 272.450 261.618 260.347 L 261.617 248.244 258.316 248.238 L 255.015 248.232 258.272 248.284 M141.896 260.812 C 144.759 260.838,149.444 260.838,152.306 260.812 C 155.169 260.786,152.827 260.765,147.101 260.765 C 141.375 260.765,139.033 260.786,141.896 260.812 M178.967 260.812 C 179.875 260.842,181.361 260.842,182.268 260.812 C 183.176 260.781,182.433 260.756,180.618 260.756 C 178.802 260.756,178.060 260.781,178.967 260.812 M194.454 260.810 L 197.710 260.862 197.758 266.699 L 197.806 272.535 197.803 266.653 L 197.799 260.770 194.499 260.764 L 191.198 260.759 194.454 260.810 M220.283 260.812 C 223.805 260.838,229.518 260.838,232.979 260.812 C 236.440 260.787,233.559 260.766,226.576 260.766 C 219.594 260.766,216.762 260.787,220.283 260.812 M245.493 260.812 C 246.401 260.842,247.886 260.842,248.794 260.812 C 249.702 260.781,248.959 260.756,247.143 260.756 C 245.328 260.756,244.585 260.781,245.493 260.812 M274.352 260.810 L 277.609 260.862 277.657 266.487 L 277.705 272.112 277.701 266.441 L 277.698 260.770 274.397 260.764 L 271.096 260.759 274.352 260.810 M130.893 283.496 C 135.711 283.520,143.595 283.520,148.413 283.496 C 153.231 283.471,149.289 283.450,139.653 283.450 C 130.017 283.450,126.075 283.471,130.893 283.496 M172.366 283.485 C 172.529 283.528,172.795 283.528,172.958 283.485 C 173.121 283.443,172.988 283.408,172.662 283.408 C 172.336 283.408,172.203 283.443,172.366 283.485 M203.089 283.495 C 204.323 283.524,206.342 283.524,207.575 283.495 C 208.809 283.466,207.799 283.443,205.332 283.443 C 202.865 283.443,201.856 283.466,203.089 283.495 M230.840 283.495 C 232.440 283.523,235.106 283.523,236.764 283.495 C 238.423 283.468,237.114 283.445,233.855 283.445 C 230.597 283.445,229.240 283.467,230.840 283.495 M266.062 283.488 C 266.273 283.529,266.577 283.527,266.739 283.485 C 266.901 283.443,266.729 283.409,266.356 283.411 C 265.984 283.413,265.852 283.448,266.062 283.488 M125.042 302.962 C 126.642 302.990,129.308 302.990,130.967 302.962 C 132.625 302.934,131.316 302.912,128.058 302.912 C 124.799 302.912,123.442 302.934,125.042 302.962 M146.636 303.300 C 147.636 303.330,149.274 303.330,150.275 303.300 C 151.276 303.270,150.457 303.246,148.455 303.246 C 146.454 303.246,145.635 303.270,146.636 303.300 M172.149 303.299 L 175.529 303.350 175.585 305.294 L 175.641 307.237 175.633 305.248 L 175.624 303.259 172.196 303.253 L 168.768 303.248 172.149 303.299 M184.807 303.300 C 185.855 303.330,187.569 303.330,188.616 303.300 C 189.664 303.271,188.807 303.246,186.712 303.246 C 184.617 303.246,183.760 303.271,184.807 303.300 M205.893 303.301 C 207.458 303.329,209.972 303.329,211.479 303.301 C 212.986 303.273,211.705 303.250,208.633 303.250 C 205.561 303.250,204.328 303.273,205.893 303.301 M227.380 303.300 C 228.381 303.330,230.019 303.330,231.020 303.300 C 232.021 303.270,231.202 303.246,229.200 303.246 C 227.198 303.246,226.380 303.270,227.380 303.300 M252.358 303.300 C 253.317 303.331,254.840 303.330,255.743 303.300 C 256.646 303.270,255.861 303.245,253.999 303.245 C 252.137 303.245,251.398 303.270,252.358 303.300 M260.425 303.384 C 260.378 303.506,260.362 305.241,260.389 307.241 L 260.439 310.876 260.478 307.110 L 260.516 303.343 262.463 303.343 L 264.410 303.343 264.410 306.052 C 264.410 307.541,264.467 308.760,264.537 308.760 C 264.606 308.761,264.625 307.523,264.579 306.010 L 264.494 303.259 262.502 303.211 C 260.984 303.174,260.490 303.216,260.425 303.384 M127.837 307.024 C 128.832 307.054,130.508 307.054,131.561 307.024 C 132.613 306.995,131.799 306.970,129.750 306.970 C 127.702 306.970,126.841 306.994,127.837 307.024 M207.104 316.039 C 207.104 320.834,207.125 322.795,207.152 320.398 C 207.178 318.000,207.178 314.077,207.152 311.680 C 207.125 309.283,207.104 311.244,207.104 316.039 M243.663 314.008 C 243.663 316.475,243.686 317.484,243.715 316.251 C 243.744 315.017,243.744 312.998,243.715 311.765 C 243.686 310.531,243.663 311.540,243.663 314.008 M158.859 317.224 C 158.859 321.367,158.881 323.062,158.908 320.990 C 158.935 318.919,158.935 315.529,158.908 313.457 C 158.881 311.386,158.859 313.081,158.859 317.224 M247.724 314.008 C 247.724 316.289,247.748 317.222,247.778 316.081 C 247.807 314.941,247.807 313.074,247.778 311.934 C 247.748 310.793,247.724 311.727,247.724 314.008 M149.015 310.918 C 150.114 310.947,151.866 310.947,152.908 310.918 C 153.951 310.888,153.051 310.864,150.910 310.864 C 148.769 310.864,147.916 310.888,149.015 310.918 M184.223 310.918 C 185.043 310.949,186.337 310.948,187.101 310.917 C 187.865 310.886,187.194 310.860,185.612 310.861 C 184.029 310.861,183.404 310.886,184.223 310.918 M229.760 310.918 C 230.859 310.947,232.611 310.947,233.653 310.918 C 234.695 310.888,233.796 310.864,231.655 310.864 C 229.513 310.864,228.661 310.888,229.760 310.918 M270.038 310.913 C 270.294 310.951,270.713 310.951,270.969 310.913 C 271.225 310.874,271.016 310.842,270.504 310.842 C 269.992 310.842,269.782 310.874,270.038 310.913 M260.424 317.816 C 260.424 321.634,260.447 323.219,260.474 321.340 C 260.501 319.461,260.501 316.338,260.474 314.400 C 260.447 312.462,260.424 313.999,260.424 317.816 M149.344 314.980 C 150.345 315.010,151.983 315.010,152.983 314.980 C 153.984 314.950,153.165 314.926,151.164 314.926 C 149.162 314.926,148.343 314.950,149.344 314.980 M183.623 314.980 C 184.391 315.011,185.647 315.011,186.416 314.980 C 187.184 314.949,186.555 314.923,185.019 314.923 C 183.483 314.923,182.854 314.949,183.623 314.980 M230.089 314.980 C 231.090 315.010,232.727 315.010,233.728 314.980 C 234.729 314.950,233.910 314.926,231.909 314.926 C 229.907 314.926,229.088 314.950,230.089 314.980 M264.486 315.068 C 264.441 315.186,264.426 317.414,264.452 320.019 L 264.500 324.757 264.539 319.894 L 264.579 315.031 267.753 314.981 L 270.927 314.931 267.748 314.892 C 265.314 314.863,264.549 314.904,264.486 315.068 M277.685 321.033 C 277.685 323.081,277.710 323.895,277.740 322.843 C 277.769 321.790,277.769 320.115,277.739 319.119 C 277.710 318.123,277.685 318.984,277.685 321.033 M178.990 322.725 C 178.990 323.843,179.017 324.278,179.051 323.692 C 179.084 323.107,179.083 322.192,179.050 321.661 C 179.017 321.129,178.989 321.608,178.990 322.725 " stroke="none" fill="#28ace4" fill-rule="evenodd"></path><path id="path2" d="M199.027 75.284 C 199.609 75.317,200.561 75.317,201.143 75.284 C 201.725 75.251,201.248 75.224,200.085 75.224 C 198.921 75.224,198.445 75.251,199.027 75.284 M120.579 153.026 C 120.579 153.631,120.610 153.879,120.647 153.576 C 120.685 153.273,120.685 152.778,120.647 152.476 C 120.610 152.173,120.579 152.421,120.579 153.026 M120.579 156.411 C 120.579 157.017,120.610 157.264,120.647 156.961 C 120.685 156.659,120.685 156.164,120.647 155.861 C 120.610 155.559,120.579 155.806,120.579 156.411 M199.196 234.234 C 199.685 234.268,200.485 234.268,200.973 234.234 C 201.462 234.200,201.062 234.172,200.085 234.172 C 199.107 234.172,198.707 234.200,199.196 234.234 M258.272 248.284 L 261.530 248.336 261.575 260.393 L 261.620 272.450 261.618 260.347 L 261.617 248.244 258.316 248.238 L 255.015 248.232 258.272 248.284 M141.896 260.812 C 144.759 260.838,149.444 260.838,152.306 260.812 C 155.169 260.786,152.827 260.765,147.101 260.765 C 141.375 260.765,139.033 260.786,141.896 260.812 M178.967 260.812 C 179.875 260.842,181.361 260.842,182.268 260.812 C 183.176 260.781,182.433 260.756,180.618 260.756 C 178.802 260.756,178.060 260.781,178.967 260.812 M194.454 260.810 L 197.710 260.862 197.758 266.699 L 197.806 272.535 197.803 266.653 L 197.799 260.770 194.499 260.764 L 191.198 260.759 194.454 260.810 M220.283 260.812 C 223.805 260.838,229.518 260.838,232.979 260.812 C 236.440 260.787,233.559 260.766,226.576 260.766 C 219.594 260.766,216.762 260.787,220.283 260.812 M245.493 260.812 C 246.401 260.842,247.886 260.842,248.794 260.812 C 249.702 260.781,248.959 260.756,247.143 260.756 C 245.328 260.756,244.585 260.781,245.493 260.812 M274.352 260.810 L 277.609 260.862 277.657 266.487 L 277.705 272.112 277.701 266.441 L 277.698 260.770 274.397 260.764 L 271.096 260.759 274.352 260.810 M130.893 283.496 C 135.711 283.520,143.595 283.520,148.413 283.496 C 153.231 283.471,149.289 283.450,139.653 283.450 C 130.017 283.450,126.075 283.471,130.893 283.496 M172.366 283.485 C 172.529 283.528,172.795 283.528,172.958 283.485 C 173.121 283.443,172.988 283.408,172.662 283.408 C 172.336 283.408,172.203 283.443,172.366 283.485 M203.089 283.495 C 204.323 283.524,206.342 283.524,207.575 283.495 C 208.809 283.466,207.799 283.443,205.332 283.443 C 202.865 283.443,201.856 283.466,203.089 283.495 M230.840 283.495 C 232.440 283.523,235.106 283.523,236.764 283.495 C 238.423 283.468,237.114 283.445,233.855 283.445 C 230.597 283.445,229.240 283.467,230.840 283.495 M266.062 283.488 C 266.273 283.529,266.577 283.527,266.739 283.485 C 266.901 283.443,266.729 283.409,266.356 283.411 C 265.984 283.413,265.852 283.448,266.062 283.488 M125.042 302.962 C 126.642 302.990,129.308 302.990,130.967 302.962 C 132.625 302.934,131.316 302.912,128.058 302.912 C 124.799 302.912,123.442 302.934,125.042 302.962 M146.636 303.300 C 147.636 303.330,149.274 303.330,150.275 303.300 C 151.276 303.270,150.457 303.246,148.455 303.246 C 146.454 303.246,145.635 303.270,146.636 303.300 M172.149 303.299 L 175.529 303.350 175.585 305.294 L 175.641 307.237 175.633 305.248 L 175.624 303.259 172.196 303.253 L 168.768 303.248 172.149 303.299 M184.807 303.300 C 185.855 303.330,187.569 303.330,188.616 303.300 C 189.664 303.271,188.807 303.246,186.712 303.246 C 184.617 303.246,183.760 303.271,184.807 303.300 M205.893 303.301 C 207.458 303.329,209.972 303.329,211.479 303.301 C 212.986 303.273,211.705 303.250,208.633 303.250 C 205.561 303.250,204.328 303.273,205.893 303.301 M227.380 303.300 C 228.381 303.330,230.019 303.330,231.020 303.300 C 232.021 303.270,231.202 303.246,229.200 303.246 C 227.198 303.246,226.380 303.270,227.380 303.300 M252.358 303.300 C 253.317 303.331,254.840 303.330,255.743 303.300 C 256.646 303.270,255.861 303.245,253.999 303.245 C 252.137 303.245,251.398 303.270,252.358 303.300 M260.425 303.384 C 260.378 303.506,260.362 305.241,260.389 307.241 L 260.439 310.876 260.478 307.110 L 260.516 303.343 262.463 303.343 L 264.410 303.343 264.410 306.052 C 264.410 307.541,264.467 308.760,264.537 308.760 C 264.606 308.761,264.625 307.523,264.579 306.010 L 264.494 303.259 262.502 303.211 C 260.984 303.174,260.490 303.216,260.425 303.384 M127.837 307.024 C 128.832 307.054,130.508 307.054,131.561 307.024 C 132.613 306.995,131.799 306.970,129.750 306.970 C 127.702 306.970,126.841 306.994,127.837 307.024 M207.104 316.039 C 207.104 320.834,207.125 322.795,207.152 320.398 C 207.178 318.000,207.178 314.077,207.152 311.680 C 207.125 309.283,207.104 311.244,207.104 316.039 M243.663 314.008 C 243.663 316.475,243.686 317.484,243.715 316.251 C 243.744 315.017,243.744 312.998,243.715 311.765 C 243.686 310.531,243.663 311.540,243.663 314.008 M158.859 317.224 C 158.859 321.367,158.881 323.062,158.908 320.990 C 158.935 318.919,158.935 315.529,158.908 313.457 C 158.881 311.386,158.859 313.081,158.859 317.224 M247.724 314.008 C 247.724 316.289,247.748 317.222,247.778 316.081 C 247.807 314.941,247.807 313.074,247.778 311.934 C 247.748 310.793,247.724 311.727,247.724 314.008 M149.015 310.918 C 150.114 310.947,151.866 310.947,152.908 310.918 C 153.951 310.888,153.051 310.864,150.910 310.864 C 148.769 310.864,147.916 310.888,149.015 310.918 M184.223 310.918 C 185.043 310.949,186.337 310.948,187.101 310.917 C 187.865 310.886,187.194 310.860,185.612 310.861 C 184.029 310.861,183.404 310.886,184.223 310.918 M229.760 310.918 C 230.859 310.947,232.611 310.947,233.653 310.918 C 234.695 310.888,233.796 310.864,231.655 310.864 C 229.513 310.864,228.661 310.888,229.760 310.918 M270.038 310.913 C 270.294 310.951,270.713 310.951,270.969 310.913 C 271.225 310.874,271.016 310.842,270.504 310.842 C 269.992 310.842,269.782 310.874,270.038 310.913 M260.424 317.816 C 260.424 321.634,260.447 323.219,260.474 321.340 C 260.501 319.461,260.501 316.338,260.474 314.400 C 260.447 312.462,260.424 313.999,260.424 317.816 M149.344 314.980 C 150.345 315.010,151.983 315.010,152.983 314.980 C 153.984 314.950,153.165 314.926,151.164 314.926 C 149.162 314.926,148.343 314.950,149.344 314.980 M183.623 314.980 C 184.391 315.011,185.647 315.011,186.416 314.980 C 187.184 314.949,186.555 314.923,185.019 314.923 C 183.483 314.923,182.854 314.949,183.623 314.980 M230.089 314.980 C 231.090 315.010,232.727 315.010,233.728 314.980 C 234.729 314.950,233.910 314.926,231.909 314.926 C 229.907 314.926,229.088 314.950,230.089 314.980 M264.486 315.068 C 264.441 315.186,264.426 317.414,264.452 320.019 L 264.500 324.757 264.539 319.894 L 264.579 315.031 267.753 314.981 L 270.927 314.931 267.748 314.892 C 265.314 314.863,264.549 314.904,264.486 315.068 M277.685 321.033 C 277.685 323.081,277.710 323.895,277.740 322.843 C 277.769 321.790,277.769 320.115,277.739 319.119 C 277.710 318.123,277.685 318.984,277.685 321.033 M178.990 322.725 C 178.990 323.843,179.017 324.278,179.051 323.692 C 179.084 323.107,179.083 322.192,179.050 321.661 C 179.017 321.129,178.989 321.608,178.990 322.725 " stroke="none" fill="#28ace4" fill-rule="evenodd"></path><path id="path3" d="M199.027 75.284 C 199.609 75.317,200.561 75.317,201.143 75.284 C 201.725 75.251,201.248 75.224,200.085 75.224 C 198.921 75.224,198.445 75.251,199.027 75.284 M120.579 153.026 C 120.579 153.631,120.610 153.879,120.647 153.576 C 120.685 153.273,120.685 152.778,120.647 152.476 C 120.610 152.173,120.579 152.421,120.579 153.026 M120.579 156.411 C 120.579 157.017,120.610 157.264,120.647 156.961 C 120.685 156.659,120.685 156.164,120.647 155.861 C 120.610 155.559,120.579 155.806,120.579 156.411 M199.196 234.234 C 199.685 234.268,200.485 234.268,200.973 234.234 C 201.462 234.200,201.062 234.172,200.085 234.172 C 199.107 234.172,198.707 234.200,199.196 234.234 M258.272 248.284 L 261.530 248.336 261.575 260.393 L 261.620 272.450 261.618 260.347 L 261.617 248.244 258.316 248.238 L 255.015 248.232 258.272 248.284 M141.896 260.812 C 144.759 260.838,149.444 260.838,152.306 260.812 C 155.169 260.786,152.827 260.765,147.101 260.765 C 141.375 260.765,139.033 260.786,141.896 260.812 M178.967 260.812 C 179.875 260.842,181.361 260.842,182.268 260.812 C 183.176 260.781,182.433 260.756,180.618 260.756 C 178.802 260.756,178.060 260.781,178.967 260.812 M194.454 260.810 L 197.710 260.862 197.758 266.699 L 197.806 272.535 197.803 266.653 L 197.799 260.770 194.499 260.764 L 191.198 260.759 194.454 260.810 M220.283 260.812 C 223.805 260.838,229.518 260.838,232.979 260.812 C 236.440 260.787,233.559 260.766,226.576 260.766 C 219.594 260.766,216.762 260.787,220.283 260.812 M245.493 260.812 C 246.401 260.842,247.886 260.842,248.794 260.812 C 249.702 260.781,248.959 260.756,247.143 260.756 C 245.328 260.756,244.585 260.781,245.493 260.812 M274.352 260.810 L 277.609 260.862 277.657 266.487 L 277.705 272.112 277.701 266.441 L 277.698 260.770 274.397 260.764 L 271.096 260.759 274.352 260.810 M130.893 283.496 C 135.711 283.520,143.595 283.520,148.413 283.496 C 153.231 283.471,149.289 283.450,139.653 283.450 C 130.017 283.450,126.075 283.471,130.893 283.496 M172.366 283.485 C 172.529 283.528,172.795 283.528,172.958 283.485 C 173.121 283.443,172.988 283.408,172.662 283.408 C 172.336 283.408,172.203 283.443,172.366 283.485 M203.089 283.495 C 204.323 283.524,206.342 283.524,207.575 283.495 C 208.809 283.466,207.799 283.443,205.332 283.443 C 202.865 283.443,201.856 283.466,203.089 283.495 M230.840 283.495 C 232.440 283.523,235.106 283.523,236.764 283.495 C 238.423 283.468,237.114 283.445,233.855 283.445 C 230.597 283.445,229.240 283.467,230.840 283.495 M266.062 283.488 C 266.273 283.529,266.577 283.527,266.739 283.485 C 266.901 283.443,266.729 283.409,266.356 283.411 C 265.984 283.413,265.852 283.448,266.062 283.488 M125.042 302.962 C 126.642 302.990,129.308 302.990,130.967 302.962 C 132.625 302.934,131.316 302.912,128.058 302.912 C 124.799 302.912,123.442 302.934,125.042 302.962 M146.636 303.300 C 147.636 303.330,149.274 303.330,150.275 303.300 C 151.276 303.270,150.457 303.246,148.455 303.246 C 146.454 303.246,145.635 303.270,146.636 303.300 M172.149 303.299 L 175.529 303.350 175.585 305.294 L 175.641 307.237 175.633 305.248 L 175.624 303.259 172.196 303.253 L 168.768 303.248 172.149 303.299 M184.807 303.300 C 185.855 303.330,187.569 303.330,188.616 303.300 C 189.664 303.271,188.807 303.246,186.712 303.246 C 184.617 303.246,183.760 303.271,184.807 303.300 M205.893 303.301 C 207.458 303.329,209.972 303.329,211.479 303.301 C 212.986 303.273,211.705 303.250,208.633 303.250 C 205.561 303.250,204.328 303.273,205.893 303.301 M227.380 303.300 C 228.381 303.330,230.019 303.330,231.020 303.300 C 232.021 303.270,231.202 303.246,229.200 303.246 C 227.198 303.246,226.380 303.270,227.380 303.300 M252.358 303.300 C 253.317 303.331,254.840 303.330,255.743 303.300 C 256.646 303.270,255.861 303.245,253.999 303.245 C 252.137 303.245,251.398 303.270,252.358 303.300 M260.425 303.384 C 260.378 303.506,260.362 305.241,260.389 307.241 L 260.439 310.876 260.478 307.110 L 260.516 303.343 262.463 303.343 L 264.410 303.343 264.410 306.052 C 264.410 307.541,264.467 308.760,264.537 308.760 C 264.606 308.761,264.625 307.523,264.579 306.010 L 264.494 303.259 262.502 303.211 C 260.984 303.174,260.490 303.216,260.425 303.384 M127.837 307.024 C 128.832 307.054,130.508 307.054,131.561 307.024 C 132.613 306.995,131.799 306.970,129.750 306.970 C 127.702 306.970,126.841 306.994,127.837 307.024 M207.104 316.039 C 207.104 320.834,207.125 322.795,207.152 320.398 C 207.178 318.000,207.178 314.077,207.152 311.680 C 207.125 309.283,207.104 311.244,207.104 316.039 M243.663 314.008 C 243.663 316.475,243.686 317.484,243.715 316.251 C 243.744 315.017,243.744 312.998,243.715 311.765 C 243.686 310.531,243.663 311.540,243.663 314.008 M158.859 317.224 C 158.859 321.367,158.881 323.062,158.908 320.990 C 158.935 318.919,158.935 315.529,158.908 313.457 C 158.881 311.386,158.859 313.081,158.859 317.224 M247.724 314.008 C 247.724 316.289,247.748 317.222,247.778 316.081 C 247.807 314.941,247.807 313.074,247.778 311.934 C 247.748 310.793,247.724 311.727,247.724 314.008 M149.015 310.918 C 150.114 310.947,151.866 310.947,152.908 310.918 C 153.951 310.888,153.051 310.864,150.910 310.864 C 148.769 310.864,147.916 310.888,149.015 310.918 M184.223 310.918 C 185.043 310.949,186.337 310.948,187.101 310.917 C 187.865 310.886,187.194 310.860,185.612 310.861 C 184.029 310.861,183.404 310.886,184.223 310.918 M229.760 310.918 C 230.859 310.947,232.611 310.947,233.653 310.918 C 234.695 310.888,233.796 310.864,231.655 310.864 C 229.513 310.864,228.661 310.888,229.760 310.918 M270.038 310.913 C 270.294 310.951,270.713 310.951,270.969 310.913 C 271.225 310.874,271.016 310.842,270.504 310.842 C 269.992 310.842,269.782 310.874,270.038 310.913 M260.424 317.816 C 260.424 321.634,260.447 323.219,260.474 321.340 C 260.501 319.461,260.501 316.338,260.474 314.400 C 260.447 312.462,260.424 313.999,260.424 317.816 M149.344 314.980 C 150.345 315.010,151.983 315.010,152.983 314.980 C 153.984 314.950,153.165 314.926,151.164 314.926 C 149.162 314.926,148.343 314.950,149.344 314.980 M183.623 314.980 C 184.391 315.011,185.647 315.011,186.416 314.980 C 187.184 314.949,186.555 314.923,185.019 314.923 C 183.483 314.923,182.854 314.949,183.623 314.980 M230.089 314.980 C 231.090 315.010,232.727 315.010,233.728 314.980 C 234.729 314.950,233.910 314.926,231.909 314.926 C 229.907 314.926,229.088 314.950,230.089 314.980 M264.486 315.068 C 264.441 315.186,264.426 317.414,264.452 320.019 L 264.500 324.757 264.539 319.894 L 264.579 315.031 267.753 314.981 L 270.927 314.931 267.748 314.892 C 265.314 314.863,264.549 314.904,264.486 315.068 M277.685 321.033 C 277.685 323.081,277.710 323.895,277.740 322.843 C 277.769 321.790,277.769 320.115,277.739 319.119 C 277.710 318.123,277.685 318.984,277.685 321.033 M178.990 322.725 C 178.990 323.843,179.017 324.278,179.051 323.692 C 179.084 323.107,179.083 322.192,179.050 321.661 C 179.017 321.129,178.989 321.608,178.990 322.725 " stroke="none" fill="#28ace4" fill-rule="evenodd"></path><path id="path4" d="M199.027 75.284 C 199.609 75.317,200.561 75.317,201.143 75.284 C 201.725 75.251,201.248 75.224,200.085 75.224 C 198.921 75.224,198.445 75.251,199.027 75.284 M120.579 153.026 C 120.579 153.631,120.610 153.879,120.647 153.576 C 120.685 153.273,120.685 152.778,120.647 152.476 C 120.610 152.173,120.579 152.421,120.579 153.026 M120.579 156.411 C 120.579 157.017,120.610 157.264,120.647 156.961 C 120.685 156.659,120.685 156.164,120.647 155.861 C 120.610 155.559,120.579 155.806,120.579 156.411 M199.196 234.234 C 199.685 234.268,200.485 234.268,200.973 234.234 C 201.462 234.200,201.062 234.172,200.085 234.172 C 199.107 234.172,198.707 234.200,199.196 234.234 M258.272 248.284 L 261.530 248.336 261.575 260.393 L 261.620 272.450 261.618 260.347 L 261.617 248.244 258.316 248.238 L 255.015 248.232 258.272 248.284 M141.896 260.812 C 144.759 260.838,149.444 260.838,152.306 260.812 C 155.169 260.786,152.827 260.765,147.101 260.765 C 141.375 260.765,139.033 260.786,141.896 260.812 M178.967 260.812 C 179.875 260.842,181.361 260.842,182.268 260.812 C 183.176 260.781,182.433 260.756,180.618 260.756 C 178.802 260.756,178.060 260.781,178.967 260.812 M194.454 260.810 L 197.710 260.862 197.758 266.699 L 197.806 272.535 197.803 266.653 L 197.799 260.770 194.499 260.764 L 191.198 260.759 194.454 260.810 M220.283 260.812 C 223.805 260.838,229.518 260.838,232.979 260.812 C 236.440 260.787,233.559 260.766,226.576 260.766 C 219.594 260.766,216.762 260.787,220.283 260.812 M245.493 260.812 C 246.401 260.842,247.886 260.842,248.794 260.812 C 249.702 260.781,248.959 260.756,247.143 260.756 C 245.328 260.756,244.585 260.781,245.493 260.812 M274.352 260.810 L 277.609 260.862 277.657 266.487 L 277.705 272.112 277.701 266.441 L 277.698 260.770 274.397 260.764 L 271.096 260.759 274.352 260.810 M130.893 283.496 C 135.711 283.520,143.595 283.520,148.413 283.496 C 153.231 283.471,149.289 283.450,139.653 283.450 C 130.017 283.450,126.075 283.471,130.893 283.496 M172.366 283.485 C 172.529 283.528,172.795 283.528,172.958 283.485 C 173.121 283.443,172.988 283.408,172.662 283.408 C 172.336 283.408,172.203 283.443,172.366 283.485 M203.089 283.495 C 204.323 283.524,206.342 283.524,207.575 283.495 C 208.809 283.466,207.799 283.443,205.332 283.443 C 202.865 283.443,201.856 283.466,203.089 283.495 M230.840 283.495 C 232.440 283.523,235.106 283.523,236.764 283.495 C 238.423 283.468,237.114 283.445,233.855 283.445 C 230.597 283.445,229.240 283.467,230.840 283.495 M266.062 283.488 C 266.273 283.529,266.577 283.527,266.739 283.485 C 266.901 283.443,266.729 283.409,266.356 283.411 C 265.984 283.413,265.852 283.448,266.062 283.488 M125.042 302.962 C 126.642 302.990,129.308 302.990,130.967 302.962 C 132.625 302.934,131.316 302.912,128.058 302.912 C 124.799 302.912,123.442 302.934,125.042 302.962 M146.636 303.300 C 147.636 303.330,149.274 303.330,150.275 303.300 C 151.276 303.270,150.457 303.246,148.455 303.246 C 146.454 303.246,145.635 303.270,146.636 303.300 M172.149 303.299 L 175.529 303.350 175.585 305.294 L 175.641 307.237 175.633 305.248 L 175.624 303.259 172.196 303.253 L 168.768 303.248 172.149 303.299 M184.807 303.300 C 185.855 303.330,187.569 303.330,188.616 303.300 C 189.664 303.271,188.807 303.246,186.712 303.246 C 184.617 303.246,183.760 303.271,184.807 303.300 M205.893 303.301 C 207.458 303.329,209.972 303.329,211.479 303.301 C 212.986 303.273,211.705 303.250,208.633 303.250 C 205.561 303.250,204.328 303.273,205.893 303.301 M227.380 303.300 C 228.381 303.330,230.019 303.330,231.020 303.300 C 232.021 303.270,231.202 303.246,229.200 303.246 C 227.198 303.246,226.380 303.270,227.380 303.300 M252.358 303.300 C 253.317 303.331,254.840 303.330,255.743 303.300 C 256.646 303.270,255.861 303.245,253.999 303.245 C 252.137 303.245,251.398 303.270,252.358 303.300 M260.425 303.384 C 260.378 303.506,260.362 305.241,260.389 307.241 L 260.439 310.876 260.478 307.110 L 260.516 303.343 262.463 303.343 L 264.410 303.343 264.410 306.052 C 264.410 307.541,264.467 308.760,264.537 308.760 C 264.606 308.761,264.625 307.523,264.579 306.010 L 264.494 303.259 262.502 303.211 C 260.984 303.174,260.490 303.216,260.425 303.384 M127.837 307.024 C 128.832 307.054,130.508 307.054,131.561 307.024 C 132.613 306.995,131.799 306.970,129.750 306.970 C 127.702 306.970,126.841 306.994,127.837 307.024 M207.104 316.039 C 207.104 320.834,207.125 322.795,207.152 320.398 C 207.178 318.000,207.178 314.077,207.152 311.680 C 207.125 309.283,207.104 311.244,207.104 316.039 M243.663 314.008 C 243.663 316.475,243.686 317.484,243.715 316.251 C 243.744 315.017,243.744 312.998,243.715 311.765 C 243.686 310.531,243.663 311.540,243.663 314.008 M158.859 317.224 C 158.859 321.367,158.881 323.062,158.908 320.990 C 158.935 318.919,158.935 315.529,158.908 313.457 C 158.881 311.386,158.859 313.081,158.859 317.224 M247.724 314.008 C 247.724 316.289,247.748 317.222,247.778 316.081 C 247.807 314.941,247.807 313.074,247.778 311.934 C 247.748 310.793,247.724 311.727,247.724 314.008 M149.015 310.918 C 150.114 310.947,151.866 310.947,152.908 310.918 C 153.951 310.888,153.051 310.864,150.910 310.864 C 148.769 310.864,147.916 310.888,149.015 310.918 M184.223 310.918 C 185.043 310.949,186.337 310.948,187.101 310.917 C 187.865 310.886,187.194 310.860,185.612 310.861 C 184.029 310.861,183.404 310.886,184.223 310.918 M229.760 310.918 C 230.859 310.947,232.611 310.947,233.653 310.918 C 234.695 310.888,233.796 310.864,231.655 310.864 C 229.513 310.864,228.661 310.888,229.760 310.918 M270.038 310.913 C 270.294 310.951,270.713 310.951,270.969 310.913 C 271.225 310.874,271.016 310.842,270.504 310.842 C 269.992 310.842,269.782 310.874,270.038 310.913 M260.424 317.816 C 260.424 321.634,260.447 323.219,260.474 321.340 C 260.501 319.461,260.501 316.338,260.474 314.400 C 260.447 312.462,260.424 313.999,260.424 317.816 M149.344 314.980 C 150.345 315.010,151.983 315.010,152.983 314.980 C 153.984 314.950,153.165 314.926,151.164 314.926 C 149.162 314.926,148.343 314.950,149.344 314.980 M183.623 314.980 C 184.391 315.011,185.647 315.011,186.416 314.980 C 187.184 314.949,186.555 314.923,185.019 314.923 C 183.483 314.923,182.854 314.949,183.623 314.980 M230.089 314.980 C 231.090 315.010,232.727 315.010,233.728 314.980 C 234.729 314.950,233.910 314.926,231.909 314.926 C 229.907 314.926,229.088 314.950,230.089 314.980 M264.486 315.068 C 264.441 315.186,264.426 317.414,264.452 320.019 L 264.500 324.757 264.539 319.894 L 264.579 315.031 267.753 314.981 L 270.927 314.931 267.748 314.892 C 265.314 314.863,264.549 314.904,264.486 315.068 M277.685 321.033 C 277.685 323.081,277.710 323.895,277.740 322.843 C 277.769 321.790,277.769 320.115,277.739 319.119 C 277.710 318.123,277.685 318.984,277.685 321.033 M178.990 322.725 C 178.990 323.843,179.017 324.278,179.051 323.692 C 179.084 323.107,179.083 322.192,179.050 321.661 C 179.017 321.129,178.989 321.608,178.990 322.725 " stroke="none" fill="#28ace4" fill-rule="evenodd"></path></g></svg>